PathFileType	4	(X/Y/Z)	Kaydara	
DataRate	CameraRate	NumFrames	NumMarkers	Units	OrigDataRate	OrigDataStartFrame	OrigNumFrames	
120.00	120.00	4	72	mm	120.00	202	268	
Frame#	Time	Hips			RightUpLeg			RightLeg			RightFoot			RightFoot_End			LeftUpLeg			LeftLeg			LeftFoot			LeftFoot_End			Spine			Spine1			Spine2			Spine3			Neck			Head			Head_End			RightShoulder			RightArm			RightForeArm			RightHand			RightHandThumb1			RightHandThumb2			RightHandThumb3			RightHandThumb3_End			RightInHandIndex			RightHandIndex1			RightHandIndex2			RightHandIndex3			RightHandIndex3_End			RightInHandMiddle			RightHandMiddle1			RightHandMiddle2			RightHandMiddle3			RightHandMiddle3_End			RightInHandRing			RightHandRing1			RightHandRing2			RightHandRing3			RightHandRing3_End			RightInHandPinky			RightHandPinky1			RightHandPinky2			RightHandPinky3			RightHandPinky3_End			LeftShoulder			LeftArm			LeftForeArm			LeftHand			LeftHandThumb1			LeftHandThumb2			LeftHandThumb3			LeftHandThumb3_End			LeftInHandIndex			LeftHandIndex1			LeftHandIndex2			LeftHandIndex3			LeftHandIndex3_End			LeftInHandMiddle			LeftHandMiddle1			LeftHandMiddle2			LeftHandMiddle3			LeftHandMiddle3_End			LeftInHandRing			LeftHandRing1			LeftHandRing2			LeftHandRing3			LeftHandRing3_End			LeftInHandPinky			LeftHandPinky1			LeftHandPinky2			LeftHandPinky3			LeftHandPinky3_End			
		X1	Y1	Z1	X2	Y2	Z2	X3	Y3	Z3	X4	Y4	Z4	X5	Y5	Z5	X6	Y6	Z6	X7	Y7	Z7	X8	Y8	Z8	X9	Y9	Z9	X10	Y10	Z10	X11	Y11	Z11	X12	Y12	Z12	X13	Y13	Z13	X14	Y14	Z14	X15	Y15	Z15	X16	Y16	Z16	X17	Y17	Z17	X18	Y18	Z18	X19	Y19	Z19	X20	Y20	Z20	X21	Y21	Z21	X22	Y22	Z22	X23	Y23	Z23	X24	Y24	Z24	X25	Y25	Z25	X26	Y26	Z26	X27	Y27	Z27	X28	Y28	Z28	X29	Y29	Z29	X30	Y30	Z30	X31	Y31	Z31	X32	Y32	Z32	X33	Y33	Z33	X34	Y34	Z34	X35	Y35	Z35	X36	Y36	Z36	X37	Y37	Z37	X38	Y38	Z38	X39	Y39	Z39	X40	Y40	Z40	X41	Y41	Z41	X42	Y42	Z42	X43	Y43	Z43	X44	Y44	Z44	X45	Y45	Z45	X46	Y46	Z46	X47	Y47	Z47	X48	Y48	Z48	X49	Y49	Z49	X50	Y50	Z50	X51	Y51	Z51	X52	Y52	Z52	X53	Y53	Z53	X54	Y54	Z54	X55	Y55	Z55	X56	Y56	Z56	X57	Y57	Z57	X58	Y58	Z58	X59	Y59	Z59	X60	Y60	Z60	X61	Y61	Z61	X62	Y62	Z62	X63	Y63	Z63	X64	Y64	Z64	X65	Y65	Z65	X66	Y66	Z66	X67	Y67	Z67	X68	Y68	Z68	X69	Y69	Z69	X70	Y70	Z70	X71	Y71	Z71	X72	Y72	Z72	

202	1.675	3446.805	859.65103	-201.189	3481.003328614177	840.2365895190777	-238.1017724440287	3406.9455374730237	435.6186332949199	-262.9003685145201	3501.3264951635083	77.60936466218918	-407.16987762829376	3491.487172272576	-25.285243749848867	-275.285205507727	3419.3811554962645	850.3372033152503	-150.76034593871324	3296.6635530944336	461.98940115617296	-56.59838578516421	3220.195009848224	81.54009067733044	92.26361728504975	3283.0423060933585	22.99413983653239	259.8438962253031	3415.065692365632	986.335955377329	-258.03020621450895	3370.2742942547993	1062.0066826519333	-298.4890881815293	3318.474356670621	1137.6455240113594	-340.093227469551	3261.022941464612	1204.0428071394165	-379.4512494288533	3198.165210033007	1274.0189156663782	-417.5596024886813	3153.5249809998995	1347.1107083160744	-381.4262419562629	3131.814196525344	1440.58213958156	-257.6955697347046	3223.752104658566	1251.524917161476	-416.14506090564953	3247.676778810782	1239.5868324832145	-449.9445650023099	3327.022103337297	1094.0304865391636	-393.50100851617566	3375.219651691675	1086.4366342513063	-452.88763300797814	3384.6528458140183	1114.5178955536253	-452.20366820089197	3392.271199034725	1131.0179096020795	-461.65262813207926	3397.9597475829287	1138.8534581907754	-468.84574582892054	3403.0297949135957	1142.2588090536656	-475.3666219095687	3387.3877462463347	1104.379335908735	-453.50673890160994	3405.2569070961913	1116.5660383304526	-460.3259666003466	3415.0425770053735	1122.9772337451436	-469.51095357201064	3417.973332888139	1127.8588247378443	-476.62971592961486	3418.2723328570405	1132.5035254493966	-483.4719641557545	3387.6819012310043	1093.915619065234	-455.14728784235933	3405.2708045640334	1100.1429243085115	-462.68466458058913	3415.9264592896698	1105.7160342272182	-472.9072070236647	3419.4515252182055	1110.922745027487	-481.59165548267407	3419.7734358706994	1115.672975700123	-489.12495251183424	3387.466691919919	1086.2115637693018	-456.09260278071264	3403.1394816943052	1085.1034670005793	-463.55200334867084	3412.3759564896313	1088.496972710737	-472.6548834392302	3415.7490480725132	1092.74177425469	-481.1341567535561	3416.038875034631	1096.8397606916603	-488.2658867984256	3386.4412906395805	1076.9827369175066	-457.29743502694043	3400.300500744962	1070.2792638482636	-464.7508638317925	3407.548511488829	1070.7174421028215	-472.308775348269	3409.9371624070964	1072.7110767405347	-478.62355405108065	3410.152638267962	1075.7067075938403	-485.01590705301265	3214.2071333376084	1252.0894818318393	-393.3738029200029	3203.0958547447403	1226.718403827764	-354.67254661616147	3261.0099506962874	1123.7497211243754	-413.2152607429754	3331.722931723522	1096.1613412839079	-387.8731607977246	3335.6901379299325	1121.1677893043943	-389.9311567326594	3346.2919875134494	1124.6715999965297	-398.8192835155201	3353.416728913213	1124.1046871883364	-406.3837939544264	3359.135279284291	1121.0596979453387	-413.8661124335774	3334.4274154330124	1114.2640637182994	-394.87956543514434	3340.636259993447	1123.928917856122	-411.4177423489061	3348.6985615645062	1122.2090199640684	-423.82809743624625	3355.493339560444	1118.2033959347568	-429.6351825643869	3362.3196866802136	1112.907269084816	-433.15441195774696	3333.6863857943463	1105.347775282869	-398.0860627968899	3339.3404113410265	1109.95416685133	-415.9510439462148	3348.0247441527677	1106.859038933672	-429.86378151299044	3356.1680528482334	1101.441724857726	-437.04763782134626	3363.610901102921	1095.3625647592992	-440.984753910787	3332.96596145253	1098.8698096074543	-399.9325498346077	3337.2952363412487	1097.5737353188179	-417.55516966966684	3344.740305404854	1093.6226833643484	-430.0321369141257	3352.529201663459	1087.731659925956	-437.14770635173403	3359.4960922927976	1081.700310085507	-440.9378066647003	3332.258613725246	1090.587738152343	-401.55697857669213	3335.6663278769074	1084.5244888490954	-418.7376238794257	3341.415649581827	1079.4104560372639	-429.19877665016776	3346.9941559287186	1074.1701555266513	-434.6162855924074	3353.106551430949	1068.284440163096	-438.1045621101295
203	1.683	3446.805	859.65103	-201.189	3480.272988210329	839.9131265243825	-238.4749341356321	3407.334831444391	434.99726197343637	-262.4412714631216	3502.165146388882	77.95294971420128	-409.0105577243549	3493.576700732176	-25.13320368461789	-276.5700177447434	3420.0402636623403	850.6046888917219	-150.45342424823295	3297.8927752489285	462.13110691179116	-55.98351475392853	3220.881316731844	81.74565901069326	92.93956417303205	3284.099856920986	22.976063017448087	260.2733558113705	3415.4208040100243	986.6008895710914	-257.7173085664194	3370.609593109608	1062.3303743674387	-298.06601099333574	3318.806491490462	1138.0483367770112	-339.5507426544907	3261.4149929235555	1204.5968434570646	-378.78563155695895	3198.4814844602556	1274.5669370383957	-416.77104342993346	3153.6840743941543	1347.54099651607	-380.6961244376189	3131.80585323845	1441.0120674248274	-257.0408956073831	3223.9149143145787	1251.9767602048214	-415.3314745396871	3246.9891099746396	1239.7642852981894	-448.78790676225424	3324.782222783031	1095.1813601684069	-388.8221836776024	3368.0083815575204	1079.5108055038631	-449.0984838758443	3378.079508765045	1106.8318058096495	-448.96723281670387	3386.022016619427	1122.1431336165258	-458.89771854780685	3391.774497119208	1129.0994869608585	-466.38805973511626	3396.759417466622	1131.7279263586636	-473.1241163679652	3380.278595788112	1096.4508309773355	-450.18810380042123	3397.7655866360865	1106.8644096749545	-457.56900290774934	3407.361682121608	1111.9798923772323	-467.12505493320094	3410.377965800051	1116.2014740138757	-474.45109978996715	3410.884947093499	1120.398052301149	-481.4491271702613	3380.149586526819	1085.9061084459654	-451.70450567275947	3397.1368222113038	1090.360165210574	-459.7225739000303	3407.5311120653623	1094.5143814302278	-470.33179572503997	3411.133211865055	1098.9224095594238	-479.25757719030327	3411.6699775676816	1103.1811442178002	-486.95707093745943	3379.6432544903564	1078.1900109045605	-452.54784139020893	3394.5185289851242	1075.4820935090781	-460.34969914893964	3403.472461220652	1077.6365575716698	-469.77022192088793	3406.890791089734	1081.1097290120351	-478.47198255765977	3407.368861604909	1084.744999524113	-485.7551014203516	3378.3084324037595	1068.9991559315167	-453.61836320807697	3391.238877929991	1060.850968871582	-461.30348572810624	3398.178737700127	1060.3003101156107	-469.084010572804	3400.5607654896817	1061.7327318649002	-475.5457181697261	3400.9201943326943	1064.319402004502	-482.0633397136443	3214.730114487391	1252.7297052764582	-392.71558274571254	3204.5537660732507	1228.6167623441602	-353.5984572387639	3260.5145475325107	1124.0254569172148	-410.02842118582413	3323.444732233383	1092.4723188618088	-383.70183492715563	3326.941008559626	1117.078653208766	-386.17405754451283	3337.6451920972613	1120.4261569134446	-394.7679015529171	3344.91265502571	1119.7021349212284	-401.99766218851397	3350.8113162182162	1116.4848901546095	-409.0898643186356	3325.8495295782213	1109.915596180048	-390.7287041706579	3332.0460407828014	1118.6086279936173	-406.671258622847	3340.3225293259625	1116.4775761260246	-418.48778743817275	3347.3154922744534	1112.476593210811	-423.97921626218886	3354.3497397394135	1107.3598568620935	-427.27328299733006	3325.3138682283607	1100.9144868424473	-393.59434227209414	3331.066886938268	1104.5270369425898	-410.6940511275905	3340.012354599269	1100.9755513990328	-423.9155390862978	3348.407923230838	1095.5601365576958	-430.6978057039225	3356.0846485839975	1089.6754643646389	-434.3784585240863	3324.737054637505	1094.398193588102	-395.2160663957967	3329.274452693796	1092.168802496871	-411.96023505399666	3336.975014151783	1087.81370954756	-423.7916795818356	3345.022045139436	1081.9211857792548	-430.4970343240582	3352.2158561334404	1076.0711244347792	-434.0351678077008	3324.2097430813205	1086.125319902915	-396.5919716845659	3327.9133016604383	1079.2006518639198	-412.81636727887854	3333.9098236972022	1073.7573786259572	-422.69730581911904	3339.6972258949327	1068.513227533923	-427.78497995193953	3346.022500146634	1062.7865172929025	-431.03243145824143
204	1.692	3446.805	859.65103	-201.189	3479.387446271583	839.5189973702367	-238.96239553326777	3407.452456759148	434.39705848747366	-262.4513193572985	3502.218250080888	78.31475044183699	-411.32360448817667	3495.063596648743	-24.969277877139593	-278.3397798953652	3420.8447431844197	850.9370124702399	-150.0412979524918	3298.8440574143433	462.31588156248796	-55.882847677661175	3221.594785803463	82.03739820278206	93.49515649190339	3285.134630479182	23.310422755432196	260.702014644104	3415.828161061882	986.8956786796356	-257.35752036540663	3370.9931856427233	1062.6903869056193	-297.57662615072843	3319.185899589018	1138.4879215567146	-338.93366076801385	3261.8714379253197	1205.1802128010183	-378.06832295558587	3198.987013061234	1275.2856858745783	-415.92082263419024	3154.1441142751746	1348.2634854219111	-379.8863321852465	3132.317359428028	1441.8164540313865	-256.295145254937	3224.295329176381	1252.6344717348377	-414.43568356546496	3246.9657285938774	1240.9648486812932	-447.48648009474897	3324.6269792924368	1097.688404148591	-384.9180137736141	3364.030479391055	1076.808752437305	-445.9334567498323	3374.6377681499966	1103.3543513427996	-446.31785507891675	3382.6783283278855	1117.5997540039652	-456.77397462439654	3388.339204854873	1123.8024543381391	-464.58747449174524	3393.1109791660983	1125.7929039211106	-471.55624229621384	3376.3101714200247	1092.873118216609	-447.4252687357038	3393.2303944778278	1101.856365791663	-455.2921017844628	3402.446617589945	1105.9148317606437	-465.22375350640044	3405.4089373636516	1109.5656553612628	-472.80109102870233	3405.9941528731806	1113.348089780874	-480.0191095985835	3375.7667115383597	1082.3443991308602	-448.80987552023157	3391.97695981573	1085.4120290910403	-457.23060977266556	3401.903903206383	1088.4195043774307	-468.2307667881526	3405.4155466865723	1092.1421378348855	-477.45064641442286	3406.0255910304813	1095.9492820036687	-485.3864346698915	3374.9807274950804	1074.676377128588	-449.54713340241005	3388.913089531246	1070.7684560533737	-457.6161288702775	3397.40692200114	1071.932421759639	-467.3574258760163	3400.7099833117013	1074.749257096033	-476.3322630936088	3401.2436771509456	1077.962184506385	-483.8325359769021	3373.350297305435	1065.5802639329768	-450.48575911183394	3385.2291027271385	1056.3902848936145	-458.33285028338776	3391.7223453885676	1055.0657479722672	-466.3379290305607	3393.982472758537	1056.0287619680066	-472.98319079439983	3394.3694092019837	1058.2466709425642	-479.68417966411374	3215.3275289430985	1253.408816790365	-392.00946556126956	3205.7152773613225	1230.0393313219483	-352.8062743593608	3260.4125719765675	1124.4501861866584	-407.589707365439	3316.5345747791353	1091.2214463473124	-379.7719907269788	3319.8226286420504	1115.644577407148	-382.58023665016424	3330.761703383673	1119.0460120798757	-390.9228868705967	3338.23848490279	1118.331081117426	-397.8654027740117	3344.3507758843434	1115.0970651310063	-404.622061439771	3318.843217516146	1108.3247893046978	-386.789094849592	3325.2044983971846	1116.556794694722	-402.18755172202447	3333.7708526379984	1114.307258650344	-413.4865869321757	3340.990144365991	1110.402643986134	-418.7137815826619	3348.242835270006	1105.4803617118841	-421.8279225409823	3318.434556196762	1099.2719228195194	-389.361596796296	3324.4169336277614	1102.406748432558	-405.7720909116288	3333.6951423778223	1098.7208930662139	-418.3918039547324	3342.371659638062	1093.4193042852828	-424.8374850774391	3350.291237758285	1087.7462149007126	-428.31261408890754	3317.941817133593	1092.728495414481	-390.79067280898533	3322.753514509634	1090.040589266461	-406.7515938833858	3330.7605538978087	1085.5639640363331	-418.0217021681992	3339.087324472531	1079.778891073332	-424.382836826331	3346.5136197025945	1074.1266595123618	-427.71845942814014	3317.518034028819	1084.4560790763217	-391.9558327686578	3321.532198331137	1077.1031697174317	-407.3336436518599	3327.798630752378	1071.5577071545504	-416.71104145801394	3333.801923036283	1066.3895751009152	-421.5214972822608	3340.339961393779	1060.836754291915	-424.5745111467934
205	1.7	3446.805	859.65103	-201.189	3478.4498312021315	839.1086113721201	-239.4909977231237	3407.3885101856013	433.8682376878072	-262.85032733994694	3501.683219273894	78.68235741126034	-413.85206320114395	3496.035466132839	-24.81236051404158	-280.41157268052694	3421.701451719709	851.287461829014	-149.58741092718702	3299.427570793442	462.5201978695977	-56.27777558085732	3222.2252650888927	82.36551125318523	93.82729315889877	3286.0336981483183	23.896289446872522	261.0119482143524	3416.2379624754503	987.1832921263208	-256.9978560496496	3371.386160867541	1063.0516296072517	-297.0759215630668	3319.582611439254	1138.9329344013513	-338.30125857216916	3262.357579880189	1205.7600708986847	-377.35342066458765	3199.6301429628174	1276.120196191712	-415.06490766129195	3154.8433350269233	1349.2106125215307	-379.0563670605501	3133.2545230831083	1442.9216781202313	-255.5244319074618	3224.838002856844	1253.43585437143	-413.5222366636085	3247.4885703608425	1242.9295701273961	-446.1534105000888	3326.258319864771	1101.1601611465835	-381.9801352032752	3362.9049972103167	1078.152838619465	-443.478867531135	3373.904238660366	1103.97526829703	-444.289291490685	3381.819921175176	1117.3585655342943	-455.26243616291305	3387.2453881383635	1122.9890518841762	-463.39167598032185	3391.693921441676	1124.5265591943569	-470.5857522120695	3375.0872935731286	1093.5397636443493	-445.2594672445776	3391.2785131957844	1101.5438469220003	-453.47891775233114	3399.950976617229	1104.8613889455296	-463.7492352299512	3402.7327244533594	1108.0719505610366	-471.5970591511103	3403.274706090187	1111.503721904381	-479.0793908070234	3374.163729798369	1083.1188764748913	-446.51570154460563	3389.4573438549423	1085.2898032439248	-455.2109040554777	3398.743101805009	1087.5061130201454	-466.56264731382834	3402.0139372347994	1090.7059043330332	-476.1002396780185	3402.565517733037	1094.1334032460782	-484.3210410581935	3373.1270600993016	1075.5526196179867	-447.15209845187957	3386.018142651504	1070.931146666237	-455.3761063349462	3393.9056749390797	1071.4246508831145	-465.405064078827	3396.951266275161	1073.747317081694	-474.6763844163339	3397.4180505030345	1076.6080932423515	-482.4399175800852	3371.2346936944755	1066.597486664923	-447.9734524898406	3381.99422382133	1056.8416335123648	-455.8866209121918	3387.9325000380977	1055.013149660216	-464.09207798285064	3389.971224230311	1055.6316484373128	-470.93909847284465	3390.27955248542	1057.5467767707323	-477.8649483467985	3215.9635968797083	1254.0949206984446	-391.30363089760095	3206.578286884562	1230.9729462257262	-352.33436868061955	3260.6765417073116	1125.0308757307398	-405.9652044281834	3311.581553840957	1092.3531712688039	-376.44397815146607	3314.9043804310727	1116.7811872151672	-379.5098969178921	3326.2031605226807	1120.4119412255689	-387.67188143982753	3333.95479529291	1119.8517962943924	-394.39601239351015	3340.3170535225627	1116.7426187840501	-400.8914243038702	3313.9915417024117	1109.4195598154747	-383.4269549127791	3320.7016750802222	1117.683780027951	-398.35890306400995	3329.6386013942024	1115.5885042282762	-409.24572593838707	3337.111517032878	1111.8536619782735	-414.28018755590136	3344.589810776006	1107.121727762432	-417.27766314309775	3313.6430538597165	1100.3584816562243	-385.7597596034922	3319.9982057524126	1103.5202492063959	-401.5856072058918	3329.6877487250717	1100.0016995749372	-413.72529170527326	3338.673599205491	1094.9044441036658	-419.9239439942994	3346.8416533015893	1089.4393911458947	-423.26436909824923	3313.1828569597856	1093.807066168609	-387.03158544643634	3318.3537551505465	1091.1323790786596	-402.33260089723717	3326.7258606909727	1086.8005049180886	-413.1543418137834	3335.3544854936085	1081.2119583595643	-419.26128123006504	3343.016057487196	1075.7550622396157	-422.4627061062044	3312.794896837068	1085.5352582258913	-388.02751534091186	3317.1571259200455	1078.1902807586146	-402.6962255180444	3323.7245447764126	1072.7590072785988	-411.67070278831005	3329.9521955463433	1067.733388810499	-416.2745193553758	3336.7010623458305	1062.353125007362	-419.19643770985857
